<svg xmlns="http://www.w3.org/2000/svg" viewBox="0 0 64 64">
  <!-- A small data-flow graph: two sources routing through a join to a sink.
       The nodes are octagons, the flow-node shape the site's panels echo. -->
  <g stroke="#0e7490" stroke-width="4.5" stroke-linecap="square" fill="none">
    <path d="M15 14 L32 32" />
    <path d="M15 50 L32 32" />
    <path d="M32 32 L51 32" />
  </g>
  <g fill="#22d3ee">
    <path d="M9.7 4h6.6L21 8.7v6.6L16.3 20H9.7L5 15.3V8.7z" />
    <path d="M9.7 44h6.6L21 48.7v6.6L16.3 60H9.7L5 55.3v-6.6z" />
    <path d="M29.7 24h6.6L41 28.7v6.6L36.3 40h-6.6L25 35.3v-6.6z" />
  </g>
  <path d="M49.7 24h6.6L61 28.7v6.6L56.3 40h-6.6L45 35.3v-6.6z" fill="#0e7490" />
</svg>
